<svg width="1280" height="832" viewBox="0 0 1280 832" fill="none" xmlns="http://www.w3.org/2000/svg">
<rect width="1280" height="832" fill="#09090B"/>
<path d="M452.631 388.727H440.614C440.529 387.733 440.302 386.831 439.932 386.021C439.577 385.212 439.08 384.516 438.441 383.933C437.816 383.337 437.056 382.882 436.161 382.57C435.266 382.243 434.251 382.08 433.114 382.08C431.126 382.08 429.442 382.562 428.064 383.528C426.701 384.494 425.664 385.879 424.954 387.683C424.258 389.487 423.91 391.653 423.91 394.182C423.91 396.852 424.265 399.089 424.975 400.893C425.699 402.683 426.743 404.033 428.107 404.942C429.471 405.837 431.111 406.284 433.029 406.284C434.123 406.284 435.103 406.149 435.969 405.879C436.836 405.595 437.589 405.19 438.228 404.665C438.867 404.139 439.385 403.507 439.783 402.768C440.195 402.016 440.472 401.17 440.614 400.233L452.631 400.318C452.489 402.165 451.971 404.047 451.076 405.964C450.181 407.868 448.91 409.629 447.262 411.249C445.628 412.854 443.604 414.146 441.189 415.126C438.775 416.107 435.969 416.597 432.773 416.597C428.768 416.597 425.174 415.737 421.992 414.018C418.824 412.3 416.317 409.771 414.471 406.433C412.638 403.095 411.722 399.011 411.722 394.182C411.722 389.324 412.66 385.233 414.535 381.909C416.41 378.571 418.938 376.05 422.12 374.345C425.302 372.626 428.853 371.767 432.773 371.767C435.529 371.767 438.064 372.143 440.38 372.896C442.695 373.649 444.726 374.75 446.474 376.199C448.221 377.634 449.627 379.402 450.692 381.504C451.758 383.607 452.404 386.014 452.631 388.727ZM483.83 372.364H495.676V400.318C495.676 403.642 494.881 406.518 493.29 408.947C491.713 411.362 489.512 413.23 486.685 414.551C483.858 415.858 480.577 416.511 476.841 416.511C473.077 416.511 469.781 415.858 466.955 414.551C464.128 413.23 461.926 411.362 460.35 408.947C458.787 406.518 458.006 403.642 458.006 400.318V372.364H469.852V399.295C469.852 400.645 470.151 401.852 470.747 402.918C471.344 403.969 472.168 404.793 473.219 405.389C474.284 405.986 475.492 406.284 476.841 406.284C478.205 406.284 479.412 405.986 480.463 405.389C481.514 404.793 482.338 403.969 482.935 402.918C483.531 401.852 483.83 400.645 483.83 399.295V372.364ZM501.307 416V372.364H520.227C523.551 372.364 526.342 372.811 528.601 373.706C530.873 374.601 532.585 375.865 533.736 377.499C534.9 379.132 535.483 381.057 535.483 383.273C535.483 384.878 535.128 386.341 534.417 387.662C533.721 388.983 532.741 390.091 531.477 390.986C530.213 391.866 528.736 392.477 527.045 392.818V393.244C528.92 393.315 530.625 393.791 532.159 394.672C533.693 395.538 534.915 396.739 535.824 398.273C536.733 399.793 537.187 401.582 537.187 403.642C537.187 406.028 536.562 408.152 535.312 410.013C534.077 411.874 532.315 413.337 530.028 414.402C527.741 415.467 525.014 416 521.846 416H501.307ZM513.153 406.54H518.693C520.682 406.54 522.173 406.17 523.167 405.432C524.162 404.679 524.659 403.571 524.659 402.108C524.659 401.085 524.425 400.219 523.956 399.509C523.487 398.798 522.819 398.259 521.953 397.889C521.101 397.52 520.071 397.335 518.863 397.335H513.153V406.54ZM513.153 390.006H518.011C519.048 390.006 519.964 389.842 520.76 389.516C521.555 389.189 522.173 388.72 522.613 388.109C523.068 387.484 523.295 386.724 523.295 385.83C523.295 384.48 522.812 383.45 521.846 382.74C520.881 382.016 519.659 381.653 518.182 381.653H513.153V390.006ZM541.385 416V372.364H572.834V381.909H553.231V389.409H571.214V398.955H553.231V406.455H572.748V416H541.385ZM590.662 416V372.364H609.497C612.736 372.364 615.57 372.953 617.999 374.132C620.428 375.311 622.317 377.009 623.666 379.224C625.016 381.44 625.691 384.097 625.691 387.193C625.691 390.318 624.994 392.953 623.602 395.098C622.225 397.243 620.286 398.862 617.786 399.956C615.3 401.05 612.395 401.597 609.071 401.597H597.821V392.392H606.685C608.077 392.392 609.263 392.222 610.243 391.881C611.237 391.526 611.997 390.964 612.523 390.197C613.063 389.43 613.333 388.429 613.333 387.193C613.333 385.943 613.063 384.928 612.523 384.146C611.997 383.351 611.237 382.768 610.243 382.399C609.263 382.016 608.077 381.824 606.685 381.824H602.509V416H590.662ZM616.23 395.972L627.139 416H614.27L603.617 395.972H616.23ZM630.74 416V372.364H662.189V381.909H642.587V389.409H660.57V398.955H642.587V406.455H662.104V416H630.74ZM691.587 386C691.474 384.58 690.941 383.472 689.989 382.676C689.052 381.881 687.624 381.483 685.706 381.483C684.485 381.483 683.483 381.632 682.702 381.93C681.935 382.214 681.367 382.605 680.998 383.102C680.628 383.599 680.437 384.168 680.422 384.807C680.394 385.332 680.486 385.808 680.699 386.234C680.927 386.646 681.282 387.023 681.765 387.364C682.248 387.69 682.866 387.989 683.618 388.259C684.371 388.528 685.266 388.77 686.303 388.983L689.883 389.75C692.297 390.261 694.364 390.936 696.083 391.774C697.802 392.612 699.208 393.599 700.302 394.736C701.395 395.858 702.198 397.122 702.709 398.528C703.235 399.935 703.505 401.469 703.519 403.131C703.505 406 702.787 408.429 701.367 410.418C699.947 412.406 697.915 413.919 695.273 414.956C692.645 415.993 689.485 416.511 685.792 416.511C681.999 416.511 678.689 415.95 675.863 414.828C673.05 413.706 670.863 411.98 669.3 409.651C667.752 407.307 666.971 404.31 666.956 400.659H678.206C678.278 401.994 678.611 403.116 679.208 404.026C679.805 404.935 680.643 405.624 681.722 406.092C682.816 406.561 684.116 406.795 685.621 406.795C686.885 406.795 687.944 406.639 688.796 406.327C689.648 406.014 690.295 405.581 690.735 405.027C691.175 404.473 691.403 403.841 691.417 403.131C691.403 402.463 691.182 401.881 690.756 401.384C690.344 400.872 689.662 400.418 688.711 400.02C687.759 399.608 686.474 399.224 684.854 398.869L680.508 397.932C676.644 397.094 673.597 395.695 671.367 393.734C669.151 391.76 668.05 389.068 668.064 385.659C668.05 382.889 668.789 380.467 670.28 378.393C671.786 376.305 673.867 374.679 676.523 373.514C679.194 372.349 682.255 371.767 685.706 371.767C689.229 371.767 692.276 372.357 694.847 373.536C697.418 374.714 699.4 376.376 700.792 378.521C702.198 380.652 702.908 383.145 702.922 386H691.587ZM706.832 381.909V372.364H744.758V381.909H731.633V416H719.957V381.909H706.832ZM755.044 416H742.26L756.664 372.364H772.857L787.26 416H774.476L764.931 384.381H764.59L755.044 416ZM752.658 398.784H776.692V407.648H752.658V398.784ZM791.463 416V372.364H810.298C813.537 372.364 816.371 372.953 818.8 374.132C821.229 375.311 823.118 377.009 824.467 379.224C825.817 381.44 826.491 384.097 826.491 387.193C826.491 390.318 825.795 392.953 824.403 395.098C823.025 397.243 821.086 398.862 818.586 399.956C816.101 401.05 813.196 401.597 809.872 401.597H798.622V392.392H807.486C808.878 392.392 810.064 392.222 811.044 391.881C812.038 391.526 812.798 390.964 813.324 390.197C813.863 389.43 814.133 388.429 814.133 387.193C814.133 385.943 813.863 384.928 813.324 384.146C812.798 383.351 812.038 382.768 811.044 382.399C810.064 382.016 808.878 381.824 807.486 381.824H803.309V416H791.463ZM817.031 395.972L827.94 416H815.071L804.417 395.972H817.031ZM830.348 381.909V372.364H868.274V381.909H855.149V416H843.473V381.909H830.348Z" fill="white"/>
<path d="M584.172 447.348C584.07 446.317 583.631 445.516 582.855 444.945C582.08 444.374 581.027 444.088 579.698 444.088C578.794 444.088 578.031 444.216 577.409 444.472C576.787 444.719 576.31 445.064 575.977 445.507C575.654 445.95 575.492 446.453 575.492 447.016C575.475 447.484 575.573 447.893 575.786 448.243C576.007 448.592 576.31 448.895 576.693 449.151C577.077 449.398 577.52 449.615 578.023 449.803C578.526 449.982 579.063 450.135 579.634 450.263L581.986 450.825C583.128 451.081 584.176 451.422 585.131 451.848C586.085 452.274 586.912 452.798 587.611 453.42C588.31 454.043 588.851 454.776 589.235 455.619C589.627 456.463 589.827 457.43 589.835 458.521C589.827 460.124 589.418 461.513 588.608 462.689C587.807 463.857 586.648 464.764 585.131 465.412C583.622 466.051 581.803 466.371 579.672 466.371C577.558 466.371 575.718 466.047 574.149 465.399C572.59 464.751 571.371 463.793 570.493 462.523C569.624 461.244 569.168 459.663 569.125 457.78H574.482C574.541 458.658 574.793 459.391 575.236 459.979C575.688 460.558 576.289 460.997 577.039 461.295C577.797 461.585 578.654 461.73 579.608 461.73C580.546 461.73 581.36 461.594 582.05 461.321C582.749 461.048 583.29 460.669 583.673 460.183C584.057 459.697 584.249 459.139 584.249 458.509C584.249 457.92 584.074 457.426 583.725 457.026C583.384 456.625 582.881 456.284 582.216 456.003C581.56 455.722 580.754 455.466 579.8 455.236L576.949 454.52C574.742 453.983 572.999 453.143 571.72 452.001C570.442 450.859 569.807 449.321 569.816 447.386C569.807 445.801 570.229 444.416 571.081 443.232C571.942 442.047 573.122 441.122 574.622 440.457C576.122 439.793 577.827 439.46 579.736 439.46C581.679 439.46 583.375 439.793 584.824 440.457C586.281 441.122 587.415 442.047 588.225 443.232C589.034 444.416 589.452 445.788 589.477 447.348H584.172ZM593.456 466V446.364H598.903V466H593.456ZM596.192 443.832C595.383 443.832 594.688 443.564 594.108 443.027C593.537 442.482 593.252 441.83 593.252 441.071C593.252 440.321 593.537 439.678 594.108 439.141C594.688 438.595 595.383 438.322 596.192 438.322C597.002 438.322 597.692 438.595 598.263 439.141C598.843 439.678 599.133 440.321 599.133 441.071C599.133 441.83 598.843 442.482 598.263 443.027C597.692 443.564 597.002 443.832 596.192 443.832ZM603.265 466V446.364H608.455V449.828H608.686C609.095 448.678 609.776 447.77 610.731 447.105C611.686 446.44 612.828 446.108 614.157 446.108C615.504 446.108 616.65 446.445 617.596 447.118C618.542 447.783 619.173 448.686 619.488 449.828H619.693C620.093 448.703 620.818 447.804 621.866 447.131C622.923 446.449 624.171 446.108 625.612 446.108C627.444 446.108 628.931 446.692 630.073 447.859C631.224 449.018 631.799 450.663 631.799 452.794V466H626.366V453.868C626.366 452.777 626.076 451.959 625.497 451.413C624.917 450.868 624.193 450.595 623.323 450.595C622.335 450.595 621.563 450.911 621.009 451.541C620.455 452.163 620.178 452.986 620.178 454.009V466H614.899V453.753C614.899 452.79 614.622 452.023 614.068 451.452C613.522 450.881 612.802 450.595 611.907 450.595C611.302 450.595 610.757 450.749 610.271 451.055C609.794 451.354 609.414 451.776 609.133 452.321C608.852 452.858 608.711 453.489 608.711 454.213V466H603.265ZM636.101 473.364V446.364H641.47V449.662H641.713C641.952 449.134 642.297 448.597 642.749 448.051C643.209 447.497 643.806 447.037 644.539 446.67C645.28 446.295 646.2 446.108 647.3 446.108C648.732 446.108 650.053 446.483 651.263 447.233C652.473 447.974 653.441 449.095 654.165 450.595C654.889 452.087 655.252 453.957 655.252 456.207C655.252 458.398 654.898 460.247 654.191 461.756C653.492 463.256 652.537 464.393 651.327 465.169C650.125 465.936 648.779 466.32 647.287 466.32C646.23 466.32 645.331 466.145 644.59 465.795C643.857 465.446 643.256 465.007 642.787 464.479C642.318 463.942 641.96 463.401 641.713 462.855H641.547V473.364H636.101ZM641.432 456.182C641.432 457.349 641.594 458.368 641.918 459.237C642.242 460.107 642.71 460.784 643.324 461.27C643.938 461.747 644.683 461.986 645.561 461.986C646.448 461.986 647.198 461.743 647.811 461.257C648.425 460.763 648.889 460.081 649.205 459.212C649.529 458.334 649.691 457.324 649.691 456.182C649.691 455.048 649.533 454.051 649.218 453.19C648.902 452.33 648.438 451.656 647.824 451.17C647.21 450.685 646.456 450.442 645.561 450.442C644.675 450.442 643.925 450.676 643.311 451.145C642.706 451.614 642.242 452.278 641.918 453.139C641.594 454 641.432 455.014 641.432 456.182ZM664.328 439.818V466H658.882V439.818H664.328ZM668.691 466V446.364H674.137V466H668.691ZM671.427 443.832C670.617 443.832 669.922 443.564 669.343 443.027C668.772 442.482 668.486 441.83 668.486 441.071C668.486 440.321 668.772 439.678 669.343 439.141C669.922 438.595 670.617 438.322 671.427 438.322C672.236 438.322 672.927 438.595 673.498 439.141C674.077 439.678 674.367 440.321 674.367 441.071C674.367 441.83 674.077 442.482 673.498 443.027C672.927 443.564 672.236 443.832 671.427 443.832ZM689.059 446.364V450.455H676.94V446.364H689.059ZM679.714 466V444.945C679.714 443.521 679.991 442.341 680.545 441.403C681.107 440.466 681.874 439.763 682.846 439.294C683.818 438.825 684.921 438.591 686.157 438.591C686.992 438.591 687.755 438.655 688.445 438.783C689.144 438.911 689.664 439.026 690.005 439.128L689.034 443.219C688.82 443.151 688.556 443.087 688.241 443.027C687.934 442.967 687.619 442.938 687.295 442.938C686.494 442.938 685.936 443.125 685.62 443.5C685.305 443.866 685.147 444.382 685.147 445.047V466H679.714ZM695.748 473.364C695.058 473.364 694.41 473.308 693.805 473.197C693.209 473.095 692.714 472.963 692.322 472.801L693.55 468.736C694.189 468.932 694.764 469.038 695.275 469.055C695.795 469.072 696.243 468.953 696.618 468.697C697.001 468.442 697.312 468.007 697.551 467.393L697.871 466.562L690.827 446.364H696.554L700.619 460.784H700.824L704.927 446.364H710.693L703.061 468.122C702.694 469.179 702.196 470.099 701.565 470.884C700.943 471.676 700.155 472.286 699.2 472.712C698.246 473.146 697.095 473.364 695.748 473.364Z" fill="url(#paint0_linear_699_8)"/>
<path d="M605.42 744.29H603.295C603.235 743.941 603.123 743.633 602.96 743.364C602.797 743.091 602.595 742.86 602.352 742.67C602.11 742.481 601.833 742.339 601.523 742.244C601.216 742.146 600.884 742.097 600.528 742.097C599.896 742.097 599.335 742.256 598.847 742.574C598.358 742.888 597.975 743.35 597.699 743.96C597.422 744.566 597.284 745.307 597.284 746.182C597.284 747.072 597.422 747.822 597.699 748.432C597.979 749.038 598.362 749.496 598.847 749.807C599.335 750.114 599.894 750.267 600.523 750.267C600.871 750.267 601.197 750.222 601.5 750.131C601.807 750.036 602.081 749.898 602.324 749.716C602.57 749.534 602.777 749.311 602.943 749.045C603.114 748.78 603.231 748.477 603.295 748.136L605.42 748.148C605.341 748.701 605.169 749.22 604.903 749.705C604.642 750.189 604.299 750.617 603.875 750.989C603.451 751.356 602.955 751.644 602.386 751.852C601.818 752.057 601.188 752.159 600.494 752.159C599.472 752.159 598.559 751.922 597.756 751.449C596.953 750.975 596.32 750.292 595.858 749.398C595.396 748.504 595.165 747.432 595.165 746.182C595.165 744.928 595.398 743.856 595.864 742.966C596.33 742.072 596.964 741.388 597.767 740.915C598.57 740.441 599.479 740.205 600.494 740.205C601.142 740.205 601.744 740.295 602.301 740.477C602.858 740.659 603.354 740.926 603.79 741.278C604.225 741.627 604.583 742.055 604.864 742.562C605.148 743.066 605.333 743.642 605.42 744.29ZM612.822 748.33V743.273H614.879V752H612.885V750.449H612.794C612.597 750.937 612.273 751.337 611.822 751.648C611.375 751.958 610.824 752.114 610.169 752.114C609.597 752.114 609.091 751.987 608.652 751.733C608.216 751.475 607.875 751.102 607.629 750.614C607.383 750.121 607.26 749.527 607.26 748.83V743.273H609.317V748.511C609.317 749.064 609.468 749.504 609.771 749.83C610.074 750.155 610.472 750.318 610.964 750.318C611.268 750.318 611.561 750.244 611.845 750.097C612.129 749.949 612.362 749.729 612.544 749.438C612.73 749.142 612.822 748.773 612.822 748.33ZM617.085 752V740.364H619.142V744.716H619.227C619.333 744.504 619.483 744.278 619.676 744.04C619.869 743.797 620.131 743.591 620.46 743.42C620.79 743.246 621.21 743.159 621.722 743.159C622.396 743.159 623.004 743.331 623.545 743.676C624.091 744.017 624.523 744.523 624.841 745.193C625.163 745.86 625.324 746.678 625.324 747.648C625.324 748.606 625.167 749.42 624.852 750.091C624.538 750.761 624.11 751.273 623.568 751.625C623.027 751.977 622.413 752.153 621.727 752.153C621.227 752.153 620.813 752.07 620.483 751.903C620.153 751.737 619.888 751.536 619.688 751.301C619.491 751.062 619.337 750.837 619.227 750.625H619.108V752H617.085ZM619.102 747.636C619.102 748.201 619.182 748.695 619.341 749.119C619.504 749.544 619.737 749.875 620.04 750.114C620.347 750.348 620.718 750.466 621.153 750.466C621.608 750.466 621.989 750.345 622.295 750.102C622.602 749.856 622.833 749.521 622.989 749.097C623.148 748.669 623.227 748.182 623.227 747.636C623.227 747.095 623.15 746.614 622.994 746.193C622.839 745.773 622.608 745.443 622.301 745.205C621.994 744.966 621.612 744.847 621.153 744.847C620.714 744.847 620.341 744.962 620.034 745.193C619.727 745.424 619.494 745.748 619.335 746.165C619.18 746.581 619.102 747.072 619.102 747.636ZM630.936 752.17C630.061 752.17 629.305 751.989 628.669 751.625C628.036 751.258 627.55 750.739 627.209 750.068C626.868 749.394 626.697 748.6 626.697 747.688C626.697 746.79 626.868 746.002 627.209 745.324C627.554 744.642 628.035 744.112 628.652 743.733C629.269 743.35 629.995 743.159 630.828 743.159C631.366 743.159 631.874 743.246 632.351 743.42C632.832 743.591 633.256 743.856 633.624 744.216C633.995 744.576 634.286 745.034 634.499 745.591C634.711 746.144 634.817 746.803 634.817 747.568V748.199H627.663V746.812H632.845C632.841 746.419 632.756 746.068 632.589 745.761C632.423 745.451 632.19 745.206 631.891 745.028C631.595 744.85 631.25 744.761 630.857 744.761C630.436 744.761 630.067 744.864 629.749 745.068C629.43 745.269 629.182 745.534 629.004 745.864C628.83 746.189 628.741 746.547 628.737 746.938V748.148C628.737 748.655 628.83 749.091 629.016 749.455C629.201 749.814 629.461 750.091 629.794 750.284C630.127 750.473 630.518 750.568 630.964 750.568C631.264 750.568 631.535 750.527 631.777 750.443C632.019 750.356 632.23 750.229 632.408 750.062C632.586 749.896 632.72 749.689 632.811 749.443L634.732 749.659C634.61 750.167 634.379 750.61 634.038 750.989C633.701 751.364 633.269 751.655 632.743 751.864C632.216 752.068 631.614 752.17 630.936 752.17ZM642.972 743.562C642.919 743.066 642.695 742.68 642.301 742.403C641.911 742.127 641.403 741.989 640.778 741.989C640.339 741.989 639.962 742.055 639.648 742.188C639.333 742.32 639.093 742.5 638.926 742.727C638.759 742.955 638.674 743.214 638.67 743.506C638.67 743.748 638.725 743.958 638.835 744.136C638.949 744.314 639.102 744.466 639.295 744.591C639.489 744.712 639.703 744.814 639.938 744.898C640.172 744.981 640.409 745.051 640.648 745.108L641.739 745.381C642.178 745.483 642.6 745.621 643.006 745.795C643.415 745.97 643.78 746.189 644.102 746.455C644.428 746.72 644.686 747.04 644.875 747.415C645.064 747.79 645.159 748.229 645.159 748.733C645.159 749.415 644.985 750.015 644.636 750.534C644.288 751.049 643.784 751.453 643.125 751.744C642.47 752.032 641.676 752.176 640.744 752.176C639.839 752.176 639.053 752.036 638.386 751.756C637.723 751.475 637.205 751.066 636.83 750.528C636.458 749.991 636.258 749.335 636.227 748.562H638.301C638.331 748.968 638.456 749.305 638.676 749.574C638.896 749.843 639.182 750.044 639.534 750.176C639.89 750.309 640.288 750.375 640.727 750.375C641.186 750.375 641.587 750.307 641.932 750.17C642.28 750.03 642.553 749.837 642.75 749.591C642.947 749.341 643.047 749.049 643.051 748.716C643.047 748.413 642.958 748.163 642.784 747.966C642.61 747.765 642.366 747.598 642.051 747.466C641.741 747.33 641.377 747.208 640.96 747.102L639.636 746.761C638.678 746.515 637.92 746.142 637.364 745.642C636.811 745.138 636.534 744.47 636.534 743.636C636.534 742.951 636.72 742.35 637.091 741.835C637.466 741.32 637.975 740.92 638.619 740.636C639.263 740.348 639.992 740.205 640.807 740.205C641.633 740.205 642.356 740.348 642.977 740.636C643.602 740.92 644.093 741.316 644.449 741.824C644.805 742.328 644.989 742.907 645 743.562H642.972ZM651.305 743.273V744.864H646.288V743.273H651.305ZM647.527 741.182H649.584V749.375C649.584 749.652 649.625 749.864 649.709 750.011C649.796 750.155 649.91 750.254 650.05 750.307C650.19 750.36 650.345 750.386 650.516 750.386C650.644 750.386 650.762 750.377 650.868 750.358C650.978 750.339 651.061 750.322 651.118 750.307L651.464 751.915C651.355 751.953 651.197 751.994 650.993 752.04C650.792 752.085 650.546 752.112 650.254 752.119C649.739 752.134 649.275 752.057 648.862 751.886C648.449 751.712 648.122 751.443 647.879 751.08C647.641 750.716 647.523 750.261 647.527 749.716V741.182ZM658.588 748.33V743.273H660.645V752H658.651V750.449H658.56C658.363 750.937 658.039 751.337 657.588 751.648C657.141 751.958 656.59 752.114 655.935 752.114C655.363 752.114 654.857 751.987 654.418 751.733C653.982 751.475 653.641 751.102 653.395 750.614C653.149 750.121 653.026 749.527 653.026 748.83V743.273H655.082V748.511C655.082 749.064 655.234 749.504 655.537 749.83C655.84 750.155 656.238 750.318 656.73 750.318C657.033 750.318 657.327 750.244 657.611 750.097C657.895 749.949 658.128 749.729 658.31 749.438C658.495 749.142 658.588 748.773 658.588 748.33ZM665.999 752.153C665.313 752.153 664.699 751.977 664.158 751.625C663.616 751.273 663.188 750.761 662.874 750.091C662.559 749.42 662.402 748.606 662.402 747.648C662.402 746.678 662.561 745.86 662.879 745.193C663.201 744.523 663.635 744.017 664.18 743.676C664.726 743.331 665.334 743.159 666.004 743.159C666.516 743.159 666.936 743.246 667.266 743.42C667.595 743.591 667.857 743.797 668.05 744.04C668.243 744.278 668.393 744.504 668.499 744.716H668.584V740.364H670.646V752H668.624V750.625H668.499C668.393 750.837 668.239 751.062 668.038 751.301C667.838 751.536 667.572 751.737 667.243 751.903C666.913 752.07 666.499 752.153 665.999 752.153ZM666.572 750.466C667.008 750.466 667.379 750.348 667.686 750.114C667.993 749.875 668.226 749.544 668.385 749.119C668.544 748.695 668.624 748.201 668.624 747.636C668.624 747.072 668.544 746.581 668.385 746.165C668.23 745.748 667.999 745.424 667.692 745.193C667.389 744.962 667.016 744.847 666.572 744.847C666.114 744.847 665.732 744.966 665.425 745.205C665.118 745.443 664.887 745.773 664.732 746.193C664.576 746.614 664.499 747.095 664.499 747.636C664.499 748.182 664.576 748.669 664.732 749.097C664.891 749.521 665.124 749.856 665.43 750.102C665.741 750.345 666.122 750.466 666.572 750.466ZM672.838 752V743.273H674.895V752H672.838ZM673.872 742.034C673.546 742.034 673.266 741.926 673.031 741.71C672.796 741.491 672.679 741.227 672.679 740.92C672.679 740.61 672.796 740.347 673.031 740.131C673.266 739.911 673.546 739.801 673.872 739.801C674.202 739.801 674.482 739.911 674.713 740.131C674.948 740.347 675.065 740.61 675.065 740.92C675.065 741.227 674.948 741.491 674.713 741.71C674.482 741.926 674.202 742.034 673.872 742.034ZM680.817 752.17C679.964 752.17 679.226 751.983 678.601 751.608C677.976 751.233 677.491 750.708 677.146 750.034C676.805 749.36 676.635 748.572 676.635 747.67C676.635 746.769 676.805 745.979 677.146 745.301C677.491 744.623 677.976 744.097 678.601 743.722C679.226 743.347 679.964 743.159 680.817 743.159C681.669 743.159 682.408 743.347 683.033 743.722C683.658 744.097 684.141 744.623 684.482 745.301C684.826 745.979 684.999 746.769 684.999 747.67C684.999 748.572 684.826 749.36 684.482 750.034C684.141 750.708 683.658 751.233 683.033 751.608C682.408 751.983 681.669 752.17 680.817 752.17ZM680.828 750.523C681.29 750.523 681.677 750.396 681.987 750.142C682.298 749.884 682.529 749.54 682.68 749.108C682.836 748.676 682.913 748.195 682.913 747.665C682.913 747.131 682.836 746.648 682.68 746.216C682.529 745.78 682.298 745.434 681.987 745.176C681.677 744.919 681.29 744.79 680.828 744.79C680.355 744.79 679.961 744.919 679.646 745.176C679.336 745.434 679.103 745.78 678.947 746.216C678.796 746.648 678.72 747.131 678.72 747.665C678.72 748.195 678.796 748.676 678.947 749.108C679.103 749.54 679.336 749.884 679.646 750.142C679.961 750.396 680.355 750.523 680.828 750.523Z" fill="#52525B"/>
<defs>
<linearGradient id="paint0_linear_699_8" x1="567.5" y1="453" x2="711.5" y2="453" gradientUnits="userSpaceOnUse">
<stop stop-color="#EDEDED"/>
<stop offset="1" stop-color="white" stop-opacity="0.37"/>
</linearGradient>
</defs>
</svg>
